<?xml version="1.0" encoding="UTF-8" standalone="no"?><svg xmlns="http://www.w3.org/2000/svg" xmlns:xlink="http://www.w3.org/1999/xlink" contentStyleType="text/css" height="650px" preserveAspectRatio="none" style="width:517px;height:650px;background:#FFFFFF;" version="1.1" viewBox="0 0 517 650" width="517px" zoomAndPan="magnify"><defs/><g><rect fill="none" height="27.6094" id="_title" style="stroke:none;stroke-width:1.0;" width="188" x="157.75" y="5"/><text fill="#000000" font-family="sans-serif" font-size="14" font-weight="bold" lengthAdjust="spacing" textLength="178" x="162.75" y="24.5332">Container Diagram MRIoT</text><!--MD5=[10fe292aa07814f2dc250ec24a5de703]
cluster MQ--><g id="cluster_MQ"><polygon fill="none" points="109.5,54.6094,119.5,44.6094,431.5,44.6094,431.5,174.6094,421.5,184.6094,109.5,184.6094,109.5,54.6094" style="stroke:#181818;stroke-width:1.0;"/><line style="stroke:#181818;stroke-width:1.0;" x1="421.5" x2="431.5" y1="54.6094" y2="44.6094"/><line style="stroke:#181818;stroke-width:1.0;" x1="109.5" x2="421.5" y1="54.6094" y2="54.6094"/><line style="stroke:#181818;stroke-width:1.0;" x1="421.5" x2="421.5" y1="54.6094" y2="184.6094"/><text fill="#000000" font-family="sans-serif" font-size="14" font-weight="bold" lengthAdjust="spacing" textLength="126" x="201.5" y="72.1426">Meta Quest Client</text><text fill="#000000" font-family="sans-serif" font-size="14" font-weight="bold" lengthAdjust="spacing" textLength="4" x="327.5" y="72.1426"> </text><text fill="#000000" font-family="sans-serif" font-size="14" font-weight="bold" lengthAdjust="spacing" textLength="4" x="208.5" y="89.752"> </text><text fill="#000000" font-family="sans-serif" font-size="14" font-style="italic" font-weight="bold" lengthAdjust="spacing" textLength="112" x="212.5" y="89.752">[Meta Quest Pro]</text></g><!--MD5=[46567e2c2eadfc5f63103f42fe458f9a]
cluster HL--><g id="cluster_HL"><polygon fill="none" points="130.5,273.6094,140.5,263.6094,412.5,263.6094,412.5,393.6094,402.5,403.6094,130.5,403.6094,130.5,273.6094" style="stroke:#181818;stroke-width:1.0;"/><line style="stroke:#181818;stroke-width:1.0;" x1="402.5" x2="412.5" y1="273.6094" y2="263.6094"/><line style="stroke:#181818;stroke-width:1.0;" x1="130.5" x2="402.5" y1="273.6094" y2="273.6094"/><line style="stroke:#181818;stroke-width:1.0;" x1="402.5" x2="402.5" y1="273.6094" y2="403.6094"/><text fill="#000000" font-family="sans-serif" font-size="14" font-weight="bold" lengthAdjust="spacing" textLength="118" x="206.5" y="291.1426">HoloLens Server</text><text fill="#000000" font-family="sans-serif" font-size="14" font-weight="bold" lengthAdjust="spacing" textLength="4" x="324.5" y="291.1426"> </text><text fill="#000000" font-family="sans-serif" font-size="14" font-weight="bold" lengthAdjust="spacing" textLength="4" x="191.5" y="308.752"> </text><text fill="#000000" font-family="sans-serif" font-size="14" font-style="italic" font-weight="bold" lengthAdjust="spacing" textLength="148" x="195.5" y="308.752">[Microsoft HoloLens 2]</text></g><!--MD5=[61bd8d960380b38d2ba082f172fe834b]
cluster RT--><g id="cluster_RT"><polygon fill="none" points="34.5,487.6094,44.5,477.6094,500.5,477.6094,500.5,623.6094,490.5,633.6094,34.5,633.6094,34.5,487.6094" style="stroke:#181818;stroke-width:1.0;"/><line style="stroke:#181818;stroke-width:1.0;" x1="490.5" x2="500.5" y1="487.6094" y2="477.6094"/><line style="stroke:#181818;stroke-width:1.0;" x1="34.5" x2="490.5" y1="487.6094" y2="487.6094"/><line style="stroke:#181818;stroke-width:1.0;" x1="490.5" x2="490.5" y1="487.6094" y2="633.6094"/><text fill="#000000" font-family="sans-serif" font-size="14" font-weight="bold" lengthAdjust="spacing" textLength="57" x="233" y="505.1426">Red Tile</text><text fill="#000000" font-family="sans-serif" font-size="14" font-weight="bold" lengthAdjust="spacing" textLength="4" x="290" y="505.1426"> </text><text fill="#000000" font-family="sans-serif" font-size="14" font-weight="bold" lengthAdjust="spacing" textLength="4" x="222" y="522.752"> </text><text fill="#000000" font-family="sans-serif" font-size="14" font-style="italic" font-weight="bold" lengthAdjust="spacing" textLength="79" x="226" y="522.752">[IoT Device]</text></g><!--MD5=[0874ebdb1c6277ef135d3fe555fa0c30]
entity MQC--><g id="elem_MQC"><rect fill="#F1F1F1" height="65.2188" rx="2.5" ry="2.5" style="stroke:#181818;stroke-width:0.5;" width="289" x="126" y="103.6094"/><rect fill="#F1F1F1" height="10" style="stroke:#181818;stroke-width:0.5;" width="15" x="395" y="108.6094"/><rect fill="#F1F1F1" height="2" style="stroke:#181818;stroke-width:0.5;" width="4" x="393" y="110.6094"/><rect fill="#F1F1F1" height="2" style="stroke:#181818;stroke-width:0.5;" width="4" x="393" y="114.6094"/><text fill="#000000" font-family="sans-serif" font-size="14" font-weight="bold" lengthAdjust="spacing" textLength="118" x="141" y="138.1426">MetaQuestClient</text><text fill="#000000" font-family="sans-serif" font-size="14" font-style="italic" lengthAdjust="spacing" textLength="249" x="141" y="155.752">[Container: UnityEngine, Meta XR SDK]</text></g><!--MD5=[34eaa8f4537399e9ec3e47f2425256f7]
entity HLS--><g id="elem_HLS"><rect fill="#F1F1F1" height="65.2188" rx="2.5" ry="2.5" style="stroke:#181818;stroke-width:0.5;" width="250" x="146.5" y="322.6094"/><rect fill="#F1F1F1" height="10" style="stroke:#181818;stroke-width:0.5;" width="15" x="376.5" y="327.6094"/><rect fill="#F1F1F1" height="2" style="stroke:#181818;stroke-width:0.5;" width="4" x="374.5" y="329.6094"/><rect fill="#F1F1F1" height="2" style="stroke:#181818;stroke-width:0.5;" width="4" x="374.5" y="333.6094"/><text fill="#000000" font-family="sans-serif" font-size="14" font-weight="bold" lengthAdjust="spacing" textLength="114" x="161.5" y="357.1426">HoloLensServer</text><text fill="#000000" font-family="sans-serif" font-size="14" font-style="italic" lengthAdjust="spacing" textLength="210" x="161.5" y="374.752">[Container: UnityEngine, MRTK3]</text></g><!--MD5=[a4e879d94c89416ef0b1bc480eb37745]
entity TQR--><g id="elem_TQR"><rect fill="#F1F1F1" height="65.2188" rx="2.5" ry="2.5" style="stroke:#181818;stroke-width:0.5;" width="108" x="77.5" y="544.6094"/><rect fill="#F1F1F1" height="10" style="stroke:#181818;stroke-width:0.5;" width="15" x="165.5" y="549.6094"/><rect fill="#F1F1F1" height="2" style="stroke:#181818;stroke-width:0.5;" width="4" x="163.5" y="551.6094"/><rect fill="#F1F1F1" height="2" style="stroke:#181818;stroke-width:0.5;" width="4" x="163.5" y="555.6094"/><text fill="#000000" font-family="sans-serif" font-size="14" font-weight="bold" lengthAdjust="spacing" textLength="62" x="92.5" y="579.1426">QR Code</text><text fill="#000000" font-family="sans-serif" font-size="14" font-style="italic" lengthAdjust="spacing" textLength="68" x="92.5" y="596.752">[Micro QR]</text></g><!--MD5=[d9c7a11c79a2324586cd2d282f62675b]
entity TFW--><g id="elem_TFW"><rect fill="#F1F1F1" height="65.2188" rx="2.5" ry="2.5" style="stroke:#181818;stroke-width:0.5;" width="255" x="221" y="544.6094"/><rect fill="#F1F1F1" height="10" style="stroke:#181818;stroke-width:0.5;" width="15" x="456" y="549.6094"/><rect fill="#F1F1F1" height="2" style="stroke:#181818;stroke-width:0.5;" width="4" x="454" y="551.6094"/><rect fill="#F1F1F1" height="2" style="stroke:#181818;stroke-width:0.5;" width="4" x="454" y="555.6094"/><text fill="#000000" font-family="sans-serif" font-size="14" font-weight="bold" lengthAdjust="spacing" textLength="94" x="236" y="579.1426">Tile Firmware</text><text fill="#000000" font-family="sans-serif" font-size="14" font-style="italic" lengthAdjust="spacing" textLength="215" x="236" y="596.752">[Container: Arduino, Unity-Things]</text></g><!--MD5=[fee662a292a0353a69bd162820bae93b]
entity User--><g id="elem_User"><ellipse cx="32.5" cy="97.1094" fill="#F1F1F1" rx="8" ry="8" style="stroke:#181818;stroke-width:0.5;"/><path d="M32.5,105.1094 L32.5,132.1094 M19.5,113.1094 L45.5,113.1094 M32.5,132.1094 L19.5,147.1094 M32.5,132.1094 L45.5,147.1094 " fill="none" style="stroke:#181818;stroke-width:0.5;"/><text fill="#000000" font-family="sans-serif" font-size="14" font-weight="bold" lengthAdjust="spacing" textLength="33" x="6" y="163.1426">User</text><text fill="#000000" font-family="sans-serif" font-size="14" font-style="italic" lengthAdjust="spacing" textLength="53" x="6" y="180.752">[Person]</text></g><!--MD5=[bc31c06676b2de3911d089e7b1f6a434]
link User to MQC--><g id="link_User_MQC"><path codeLine="34" d="M59.34,136.1094 C75.4,136.1094 97.23,136.1094 120.78,136.1094 " fill="none" id="User-to-MQC" style="stroke:#181818;stroke-width:1.0;"/><polygon fill="#181818" points="125.83,136.1094,116.83,132.1094,120.83,136.1094,116.83,140.1094,125.83,136.1094" style="stroke:#181818;stroke-width:1.0;"/><text fill="#000000" font-family="sans-serif" font-size="13" lengthAdjust="spacing" textLength="30" x="77.5" y="129.6045">Uses</text></g><!--MD5=[81f6c26272d0f2cb9fdb6351839f5962]
link MQC to HLS--><g id="link_MQC_HLS"><path codeLine="35" d="M237.9,168.8094 C227,181.5794 216.18,197.1794 210.5,213.6094 C205.57,227.8894 206.61,233.0094 210.5,247.6094 C217.22,272.8794 231.52,298.3994 244.58,318.1094 " fill="none" id="MQC-to-HLS" style="stroke:#181818;stroke-width:1.0;"/><polygon fill="#181818" points="247.52,322.4894,245.8174,312.7888,244.73,318.3402,239.1787,317.2528,247.52,322.4894" style="stroke:#181818;stroke-width:1.0;"/><text fill="#000000" font-family="sans-serif" font-size="13" lengthAdjust="spacing" textLength="69" x="211.5" y="228.1045">Sends input</text><text fill="#000000" font-family="sans-serif" font-size="13" lengthAdjust="spacing" textLength="37" x="231.5" y="244.4561">[NGO]</text></g><!--MD5=[65673e46cef33d169b902db30bfd784c]
reverse link MQC to HLS--><g id="link_MQC_HLS"><path codeLine="36" d="M281.51,173.6894 C284.76,186.2294 287.89,200.4194 289.5,213.6094 C294.08,251.0794 286.7,294.1294 280.05,322.5994 " fill="none" id="MQC-backto-HLS" style="stroke:#181818;stroke-width:1.0;"/><polygon fill="#181818" points="280.21,168.7994,278.6604,178.5256,281.4965,173.631,286.3911,176.4671,280.21,168.7994" style="stroke:#181818;stroke-width:1.0;"/><text fill="#000000" font-family="sans-serif" font-size="13" lengthAdjust="spacing" textLength="117" x="291.5" y="228.1045">Updates game state</text><text fill="#000000" font-family="sans-serif" font-size="13" lengthAdjust="spacing" textLength="37" x="335.5" y="244.4561">[NGO]</text></g><!--MD5=[bbda6a6ed9b9cdbd3c13cb898973f2bb]
link HLS to TQR--><g id="link_HLS_TQR"><path codeLine="37" d="M212.2,387.6694 C199.66,396.5994 187.51,407.2994 178.5,419.6094 C152.42,455.2494 140.68,505.4094 135.48,539.2594 " fill="none" id="HLS-to-TQR" style="stroke:#181818;stroke-width:1.0;"/><polygon fill="#181818" points="134.7,544.5494,139.9697,536.2289,135.4291,539.6028,132.0552,535.0623,134.7,544.5494" style="stroke:#181818;stroke-width:1.0;"/><text fill="#000000" font-family="sans-serif" font-size="13" lengthAdjust="spacing" textLength="39" x="186.5" y="434.1045">Tracks</text><text fill="#000000" font-family="sans-serif" font-size="13" lengthAdjust="spacing" textLength="53" x="183.5" y="450.4561">[Camera]</text></g><!--MD5=[21eedcb4c2c2e951d0cdd9c16072d53f]
link HLS to TFW--><g id="link_HLS_TFW"><path codeLine="38" d="M255.47,387.8194 C247.86,407.1494 241.92,432.1794 249.5,453.6094 C261.3,486.9994 286.5,517.9594 308.52,540.3994 " fill="none" id="HLS-to-TFW" style="stroke:#181818;stroke-width:1.0;"/><polygon fill="#181818" points="312.31,544.1994,308.793,534.9999,308.7816,540.6567,303.1248,540.6453,312.31,544.1994" style="stroke:#181818;stroke-width:1.0;"/><text fill="#000000" font-family="sans-serif" font-size="13" lengthAdjust="spacing" textLength="60" x="250.5" y="434.1045">Sets state</text><text fill="#000000" font-family="sans-serif" font-size="13" lengthAdjust="spacing" textLength="43" x="263" y="450.4561">[MQTT]</text></g><!--MD5=[6831c9d3ba4bc077cfb72c0a0dcc96de]
link TFW to HLS--><g id="link_TFW_HLS"><path codeLine="39" d="M346.92,544.5694 C344.33,512.0394 337.5,460.4394 319.5,419.6094 C315.28,410.0494 309.37,400.5894 303.13,392.0194 " fill="none" id="TFW-to-HLS" style="stroke:#181818;stroke-width:1.0;"/><polygon fill="#181818" points="300.05,387.8794,302.2336,397.4831,303.0432,391.8845,308.6418,392.6941,300.05,387.8794" style="stroke:#181818;stroke-width:1.0;"/><text fill="#000000" font-family="sans-serif" font-size="13" lengthAdjust="spacing" textLength="69" x="331.5" y="434.1045">Sends input</text><text fill="#000000" font-family="sans-serif" font-size="13" lengthAdjust="spacing" textLength="43" x="348.5" y="450.4561">[MQTT]</text></g><!--MD5=[1f39461e4173e79027f78cd0772c1291]
link User to RT--><g id="link_User_RT"><path codeLine="40" d="M33.56,183.6794 C34.835,239.7244 37.045,336.7419 38.9488,420.2869 C39.1867,430.73 39.4199,440.9626 39.6459,450.8784 C39.7589,455.8363 39.87,460.7149 39.9791,465.5011 C40.0337,467.8942 40.0877,470.2642 40.1411,472.6093 C40.1679,473.7819 40.1944,474.9483 40.2209,476.1083 " fill="none" id="User-to-RT" style="stroke:#181818;stroke-width:1.0;"/><polygon fill="#181818" points="40.2209,476.1083,44.0148,467.0195,40.1069,471.1096,36.0168,467.2018,40.2209,476.1083" style="stroke:#181818;stroke-width:1.0;"/><text fill="#000000" font-family="sans-serif" font-size="13" lengthAdjust="spacing" textLength="77" x="39.5" y="360.6045">Interacts with</text></g><!--MD5=[abdb7dea52cb432fcc3cb855a6002282]
@startuml containerDiagramMRIoT

title Container Diagram MRIoT

actor User [
    <b>User</b>
    <i>[Person]</i>
]

node MQ as "<b>Meta Quest Client</b> \n <i>[Meta Quest Pro]</i>" {
    component MQC [
        <b>MetaQuestClient</b>
        <i>[Container: UnityEngine, Meta XR SDK]</i>
    ]
}

node HL as "<b>HoloLens Server</b> \n <i>[Microsoft HoloLens 2]</i>" {
    component HLS [
        <b>HoloLensServer</b>
        <i>[Container: UnityEngine, MRTK3]</i>
    ]
}

node RT as "<b>Red Tile</b> \n <i>[IoT Device]</i>" {
    component TQR [
        <b>QR Code</b>
        <i>[Micro QR]</i>
    ]
    component TFW [
        <b>Tile Firmware</b>
        <i>[Container: Arduino, Unity-Things]</i>
    ]
}

User -> MQC : Uses
MQC - -> HLS : Sends input \n [NGO]
MQC <- - HLS: Updates game state \n [NGO]
HLS - -> TQR : Tracks \n [Camera]
HLS - -> TFW : Sets state \n [MQTT]
TFW - -> HLS : Sends input \n [MQTT]
User - -> RT : Interacts with

@end

PlantUML version 1.2022.7(Mon Aug 22 19:01:30 CEST 2022)
(GPL source distribution)
Java Runtime: OpenJDK Runtime Environment
JVM: OpenJDK 64-Bit Server VM
Default Encoding: Cp1252
Language: en
Country: GB
--></g></svg>