<?xml version="1.0" encoding="UTF-8" standalone="no"?><svg xmlns="http://www.w3.org/2000/svg" xmlns:xlink="http://www.w3.org/1999/xlink" contentStyleType="text/css" height="892px" preserveAspectRatio="none" style="width:1162px;height:892px;background:#FFFFFF;" version="1.1" viewBox="0 0 1162 892" width="1162px" zoomAndPan="magnify"><defs/><g><rect fill="none" height="27.6094" id="_title" style="stroke:none;stroke-width:1.0;" width="298" x="425" y="5"/><text fill="#000000" font-family="sans-serif" font-size="14" font-weight="bold" lengthAdjust="spacing" textLength="288" x="430" y="24.5332">Component Diagram for HoloLens Server</text><!--MD5=[3a10499ba774d8f3d84719fab0c65af4]
cluster HLS--><g id="cluster_HLS"><path d="M8.5,250.6094 L123.5,250.6094 A3.75,3.75 0 0 1 126,253.1094 L133,274.2188 L1152.5,274.2188 A2.5,2.5 0 0 1 1155,276.7188 L1155,667.1094 A2.5,2.5 0 0 1 1152.5,669.6094 L8.5,669.6094 A2.5,2.5 0 0 1 6,667.1094 L6,253.1094 A2.5,2.5 0 0 1 8.5,250.6094 " fill="none" style="stroke:#000000;stroke-width:1.5;"/><line style="stroke:#000000;stroke-width:1.5;" x1="6" x2="133" y1="274.2188" y2="274.2188"/><text fill="#000000" font-family="sans-serif" font-size="14" font-weight="bold" lengthAdjust="spacing" textLength="114" x="10" y="267.1426">HoloLensServer</text></g><!--MD5=[10fe292aa07814f2dc250ec24a5de703]
cluster MQ--><g id="cluster_MQ"><polygon fill="none" points="133,54.6094,143,44.6094,455,44.6094,455,174.6094,445,184.6094,133,184.6094,133,54.6094" style="stroke:#181818;stroke-width:1.0;"/><line style="stroke:#181818;stroke-width:1.0;" x1="445" x2="455" y1="54.6094" y2="44.6094"/><line style="stroke:#181818;stroke-width:1.0;" x1="133" x2="445" y1="54.6094" y2="54.6094"/><line style="stroke:#181818;stroke-width:1.0;" x1="445" x2="445" y1="54.6094" y2="184.6094"/><text fill="#000000" font-family="sans-serif" font-size="14" font-weight="bold" lengthAdjust="spacing" textLength="126" x="225" y="72.1426">Meta Quest Client</text><text fill="#000000" font-family="sans-serif" font-size="14" font-weight="bold" lengthAdjust="spacing" textLength="4" x="351" y="72.1426"> </text><text fill="#000000" font-family="sans-serif" font-size="14" font-weight="bold" lengthAdjust="spacing" textLength="4" x="232" y="89.752"> </text><text fill="#000000" font-family="sans-serif" font-size="14" font-style="italic" font-weight="bold" lengthAdjust="spacing" textLength="112" x="236" y="89.752">[Meta Quest Pro]</text></g><!--MD5=[61bd8d960380b38d2ba082f172fe834b]
cluster RT--><g id="cluster_RT"><polygon fill="none" points="578,745.6094,588,735.6094,1009,735.6094,1009,865.6094,999,875.6094,578,875.6094,578,745.6094" style="stroke:#181818;stroke-width:1.0;"/><line style="stroke:#181818;stroke-width:1.0;" x1="999" x2="1009" y1="745.6094" y2="735.6094"/><line style="stroke:#181818;stroke-width:1.0;" x1="578" x2="999" y1="745.6094" y2="745.6094"/><line style="stroke:#181818;stroke-width:1.0;" x1="999" x2="999" y1="745.6094" y2="875.6094"/><text fill="#000000" font-family="sans-serif" font-size="14" font-weight="bold" lengthAdjust="spacing" textLength="57" x="759" y="763.1426">Red Tile</text><text fill="#000000" font-family="sans-serif" font-size="14" font-weight="bold" lengthAdjust="spacing" textLength="4" x="816" y="763.1426"> </text><text fill="#000000" font-family="sans-serif" font-size="14" font-weight="bold" lengthAdjust="spacing" textLength="4" x="748" y="780.752"> </text><text fill="#000000" font-family="sans-serif" font-size="14" font-style="italic" font-weight="bold" lengthAdjust="spacing" textLength="79" x="752" y="780.752">[IoT Device]</text></g><!--MD5=[479029c65aae190b3344568a590ca992]
entity Exact--><g id="elem_Exact"><rect fill="#F1F1F1" height="118.0469" rx="2.5" ry="2.5" style="stroke:#181818;stroke-width:0.5;" width="266" x="548" y="304.1094"/><rect fill="#F1F1F1" height="10" style="stroke:#181818;stroke-width:0.5;" width="15" x="794" y="309.1094"/><rect fill="#F1F1F1" height="2" style="stroke:#181818;stroke-width:0.5;" width="4" x="792" y="311.1094"/><rect fill="#F1F1F1" height="2" style="stroke:#181818;stroke-width:0.5;" width="4" x="792" y="315.1094"/><text fill="#000000" font-family="sans-serif" font-size="14" font-weight="bold" lengthAdjust="spacing" textLength="104" x="563" y="338.6426">Exact Manager</text><text fill="#000000" font-family="sans-serif" font-size="14" font-style="italic" lengthAdjust="spacing" textLength="168" x="563" y="356.252">[Component: GameObject]</text><text fill="#000000" font-family="sans-serif" font-size="14" lengthAdjust="spacing" textLength="4" x="563" y="373.8613"> </text><text fill="#000000" font-family="sans-serif" font-size="14" lengthAdjust="spacing" textLength="217" x="563" y="391.4707">Handles the MQTT communication</text><text fill="#000000" font-family="sans-serif" font-size="14" lengthAdjust="spacing" textLength="119" x="563" y="409.0801">for the digital twin (</text><text fill="#000000" font-family="sans-serif" font-size="14" font-style="italic" lengthAdjust="spacing" textLength="98" x="682" y="409.0801">Network Device</text><text fill="#000000" font-family="sans-serif" font-size="14" lengthAdjust="spacing" textLength="9" x="780" y="409.0801">).</text></g><!--MD5=[d501bb35f31da076653453e9d4b21a55]
entity NMHL--><g id="elem_NMHL"><rect fill="#F1F1F1" height="135.6563" rx="2.5" ry="2.5" style="stroke:#181818;stroke-width:0.5;" width="248" x="22" y="295.1094"/><rect fill="#F1F1F1" height="10" style="stroke:#181818;stroke-width:0.5;" width="15" x="250" y="300.1094"/><rect fill="#F1F1F1" height="2" style="stroke:#181818;stroke-width:0.5;" width="4" x="248" y="302.1094"/><rect fill="#F1F1F1" height="2" style="stroke:#181818;stroke-width:0.5;" width="4" x="248" y="306.1094"/><text fill="#000000" font-family="sans-serif" font-size="14" font-weight="bold" lengthAdjust="spacing" textLength="124" x="37" y="329.6426">Network Manager</text><text fill="#000000" font-family="sans-serif" font-size="14" font-style="italic" lengthAdjust="spacing" textLength="168" x="37" y="347.252">[Component: GameObject]</text><text fill="#000000" font-family="sans-serif" font-size="14" lengthAdjust="spacing" textLength="4" x="37" y="364.8613"> </text><text fill="#000000" font-family="sans-serif" font-size="14" lengthAdjust="spacing" textLength="208" x="37" y="382.4707">Handles the NGO communication</text><text fill="#000000" font-family="sans-serif" font-size="14" lengthAdjust="spacing" textLength="5" x="37" y="400.0801">(</text><text fill="#000000" font-family="sans-serif" font-size="14" font-style="italic" lengthAdjust="spacing" textLength="164" x="42" y="400.0801">Netcode for GameObjects</text><text fill="#000000" font-family="sans-serif" font-size="14" lengthAdjust="spacing" textLength="5" x="206" y="400.0801">)</text><text fill="#000000" font-family="sans-serif" font-size="14" lengthAdjust="spacing" textLength="203" x="37" y="417.6895">for cross-device communication.</text></g><!--MD5=[aeaaa18cf7e2d79545c7c8d8fd9f7b17]
entity QRCM--><g id="elem_QRCM"><rect fill="#F1F1F1" height="135.6563" rx="2.5" ry="2.5" style="stroke:#181818;stroke-width:0.5;" width="289" x="849.5" y="295.1094"/><rect fill="#F1F1F1" height="10" style="stroke:#181818;stroke-width:0.5;" width="15" x="1118.5" y="300.1094"/><rect fill="#F1F1F1" height="2" style="stroke:#181818;stroke-width:0.5;" width="4" x="1116.5" y="302.1094"/><rect fill="#F1F1F1" height="2" style="stroke:#181818;stroke-width:0.5;" width="4" x="1116.5" y="306.1094"/><text fill="#000000" font-family="sans-serif" font-size="14" font-weight="bold" lengthAdjust="spacing" textLength="136" x="864.5" y="329.6426">QR Codes Manager</text><text fill="#000000" font-family="sans-serif" font-size="14" font-style="italic" lengthAdjust="spacing" textLength="168" x="864.5" y="347.252">[Component: GameObject]</text><text fill="#000000" font-family="sans-serif" font-size="14" lengthAdjust="spacing" textLength="4" x="864.5" y="364.8613"> </text><text fill="#000000" font-family="sans-serif" font-size="14" lengthAdjust="spacing" textLength="249" x="864.5" y="382.4707">Handles the detection of new QR codes</text><text fill="#000000" font-family="sans-serif" font-size="14" lengthAdjust="spacing" textLength="239" x="864.5" y="400.0801">and instantiation of new GameObjects</text><text fill="#000000" font-family="sans-serif" font-size="14" lengthAdjust="spacing" textLength="5" x="864.5" y="417.6895">(</text><text fill="#000000" font-family="sans-serif" font-size="14" font-style="italic" lengthAdjust="spacing" textLength="94" x="869.5" y="417.6895">NetworkDevice</text><text fill="#000000" font-family="sans-serif" font-size="14" lengthAdjust="spacing" textLength="129" x="963.5" y="417.6895">) based on QR data.</text></g><!--MD5=[e528c6ab46f6025ca6b6e890355e65a8]
entity Game--><g id="elem_Game"><rect fill="#F1F1F1" height="118.0469" rx="2.5" ry="2.5" style="stroke:#181818;stroke-width:0.5;" width="310" x="22" y="526.6094"/><rect fill="#F1F1F1" height="10" style="stroke:#181818;stroke-width:0.5;" width="15" x="312" y="531.6094"/><rect fill="#F1F1F1" height="2" style="stroke:#181818;stroke-width:0.5;" width="4" x="310" y="533.6094"/><rect fill="#F1F1F1" height="2" style="stroke:#181818;stroke-width:0.5;" width="4" x="310" y="537.6094"/><text fill="#000000" font-family="sans-serif" font-size="14" font-weight="bold" lengthAdjust="spacing" textLength="40" x="37" y="561.1426">Game</text><text fill="#000000" font-family="sans-serif" font-size="14" font-style="italic" lengthAdjust="spacing" textLength="168" x="37" y="578.752">[Component: GameObject]</text><text fill="#000000" font-family="sans-serif" font-size="14" lengthAdjust="spacing" textLength="4" x="37" y="596.3613"> </text><text fill="#000000" font-family="sans-serif" font-size="14" lengthAdjust="spacing" textLength="270" x="37" y="613.9707">Runs the game logic and determines which</text><text fill="#000000" font-family="sans-serif" font-size="14" lengthAdjust="spacing" textLength="228" x="37" y="631.5801">state the game objects should have.</text></g><!--MD5=[19990516c40af8e023b619408c7e9bc0]
entity NDHL--><g id="elem_NDHL"><rect fill="#F1F1F1" height="135.6563" rx="2.5" ry="2.5" style="stroke:#181818;stroke-width:0.5;" width="287" x="437.5" y="517.6094"/><rect fill="#F1F1F1" height="10" style="stroke:#181818;stroke-width:0.5;" width="15" x="704.5" y="522.6094"/><rect fill="#F1F1F1" height="2" style="stroke:#181818;stroke-width:0.5;" width="4" x="702.5" y="524.6094"/><rect fill="#F1F1F1" height="2" style="stroke:#181818;stroke-width:0.5;" width="4" x="702.5" y="528.6094"/><text fill="#000000" font-family="sans-serif" font-size="14" font-weight="bold" lengthAdjust="spacing" textLength="111" x="452.5" y="552.1426">Network Device</text><text fill="#000000" font-family="sans-serif" font-size="14" font-style="italic" lengthAdjust="spacing" textLength="168" x="452.5" y="569.752">[Component: GameObject]</text><text fill="#000000" font-family="sans-serif" font-size="14" lengthAdjust="spacing" textLength="4" x="452.5" y="587.3613"> </text><text fill="#000000" font-family="sans-serif" font-size="14" lengthAdjust="spacing" textLength="225" x="452.5" y="604.9707">The logic-only representation of the</text><text fill="#000000" font-family="sans-serif" font-size="14" lengthAdjust="spacing" textLength="224" x="452.5" y="622.5801">digital twin running on the HoloLens</text><text fill="#000000" font-family="sans-serif" font-size="14" lengthAdjust="spacing" textLength="247" x="452.5" y="640.1895">and communicating with the IoT device.</text></g><!--MD5=[c4e4e61a52b96f3dade518080f1455d6]
entity NTHL--><g id="elem_NTHL"><rect fill="#F1F1F1" height="153.2656" rx="2.5" ry="2.5" style="stroke:#181818;stroke-width:0.5;" width="208" x="305" y="286.6094"/><rect fill="#F1F1F1" height="10" style="stroke:#181818;stroke-width:0.5;" width="15" x="493" y="291.6094"/><rect fill="#F1F1F1" height="2" style="stroke:#181818;stroke-width:0.5;" width="4" x="491" y="293.6094"/><rect fill="#F1F1F1" height="2" style="stroke:#181818;stroke-width:0.5;" width="4" x="491" y="297.6094"/><text fill="#000000" font-family="sans-serif" font-size="14" font-weight="bold" lengthAdjust="spacing" textLength="101" x="320" y="321.1426">Network Thing</text><text fill="#000000" font-family="sans-serif" font-size="14" font-style="italic" lengthAdjust="spacing" textLength="168" x="320" y="338.752">[Component: GameObject]</text><text fill="#000000" font-family="sans-serif" font-size="14" lengthAdjust="spacing" textLength="4" x="320" y="356.3613"> </text><text fill="#000000" font-family="sans-serif" font-size="14" lengthAdjust="spacing" textLength="161" x="320" y="373.9707">The visual representation</text><text fill="#000000" font-family="sans-serif" font-size="14" lengthAdjust="spacing" textLength="109" x="320" y="391.5801">of the digital twin.</text><text fill="#000000" font-family="sans-serif" font-size="14" lengthAdjust="spacing" textLength="137" x="320" y="409.1895">Synchronizes its state</text><text fill="#000000" font-family="sans-serif" font-size="14" lengthAdjust="spacing" textLength="119" x="320" y="426.7988">between all clients.</text></g><!--MD5=[0874ebdb1c6277ef135d3fe555fa0c30]
entity MQC--><g id="elem_MQC"><rect fill="#F1F1F1" height="65.2188" rx="2.5" ry="2.5" style="stroke:#181818;stroke-width:0.5;" width="289" x="149.5" y="103.6094"/><rect fill="#F1F1F1" height="10" style="stroke:#181818;stroke-width:0.5;" width="15" x="418.5" y="108.6094"/><rect fill="#F1F1F1" height="2" style="stroke:#181818;stroke-width:0.5;" width="4" x="416.5" y="110.6094"/><rect fill="#F1F1F1" height="2" style="stroke:#181818;stroke-width:0.5;" width="4" x="416.5" y="114.6094"/><text fill="#000000" font-family="sans-serif" font-size="14" font-weight="bold" lengthAdjust="spacing" textLength="118" x="164.5" y="138.1426">MetaQuestClient</text><text fill="#000000" font-family="sans-serif" font-size="14" font-style="italic" lengthAdjust="spacing" textLength="249" x="164.5" y="155.752">[Container: UnityEngine, Meta XR SDK]</text></g><!--MD5=[a4e879d94c89416ef0b1bc480eb37745]
entity TQR--><g id="elem_TQR"><rect fill="#F1F1F1" height="65.2188" rx="2.5" ry="2.5" style="stroke:#181818;stroke-width:0.5;" width="108" x="885" y="794.6094"/><rect fill="#F1F1F1" height="10" style="stroke:#181818;stroke-width:0.5;" width="15" x="973" y="799.6094"/><rect fill="#F1F1F1" height="2" style="stroke:#181818;stroke-width:0.5;" width="4" x="971" y="801.6094"/><rect fill="#F1F1F1" height="2" style="stroke:#181818;stroke-width:0.5;" width="4" x="971" y="805.6094"/><text fill="#000000" font-family="sans-serif" font-size="14" font-weight="bold" lengthAdjust="spacing" textLength="62" x="900" y="829.1426">QR Code</text><text fill="#000000" font-family="sans-serif" font-size="14" font-style="italic" lengthAdjust="spacing" textLength="68" x="900" y="846.752">[Micro QR]</text></g><!--MD5=[d9c7a11c79a2324586cd2d282f62675b]
entity TFW--><g id="elem_TFW"><rect fill="#F1F1F1" height="65.2188" rx="2.5" ry="2.5" style="stroke:#181818;stroke-width:0.5;" width="255" x="594.5" y="794.6094"/><rect fill="#F1F1F1" height="10" style="stroke:#181818;stroke-width:0.5;" width="15" x="829.5" y="799.6094"/><rect fill="#F1F1F1" height="2" style="stroke:#181818;stroke-width:0.5;" width="4" x="827.5" y="801.6094"/><rect fill="#F1F1F1" height="2" style="stroke:#181818;stroke-width:0.5;" width="4" x="827.5" y="805.6094"/><text fill="#000000" font-family="sans-serif" font-size="14" font-weight="bold" lengthAdjust="spacing" textLength="94" x="609.5" y="829.1426">Tile Firmware</text><text fill="#000000" font-family="sans-serif" font-size="14" font-style="italic" lengthAdjust="spacing" textLength="215" x="609.5" y="846.752">[Container: Arduino, Unity-Things]</text></g><!--MD5=[8d85e85ee9229ab8e0129525b7d4be2f]
link MQC to NMHL--><g id="link_MQC_NMHL"><path codeLine="72" d="M234.34,168.7794 C221.65,177.6994 209.29,188.3794 200,200.6094 C180.3,226.5394 167.56,260.0394 159.43,289.8094 " fill="none" id="MQC-to-NMHL" style="stroke:#181818;stroke-width:1.0;"/><polygon fill="#181818" points="158.07,294.9394,164.2455,287.2671,159.353,290.1068,156.5133,285.2143,158.07,294.9394" style="stroke:#181818;stroke-width:1.0;"/><text fill="#000000" font-family="sans-serif" font-size="13" lengthAdjust="spacing" textLength="70" x="201" y="215.1045">Connects to</text><text fill="#000000" font-family="sans-serif" font-size="13" lengthAdjust="spacing" textLength="37" x="221.5" y="231.4561">[NGO]</text></g><!--MD5=[8241b27680ede75777cf8b8b59b94e0f]
link QRCM to TQR--><g id="link_QRCM_TQR"><path codeLine="73" d="M986,431.2894 C974.23,530.1494 952.65,711.4794 943.4,789.1794 " fill="none" id="QRCM-to-TQR" style="stroke:#181818;stroke-width:1.0;"/><polygon fill="#181818" points="942.75,794.5894,947.7784,786.1209,943.3367,789.6239,939.8337,785.1822,942.75,794.5894" style="stroke:#181818;stroke-width:1.0;"/><text fill="#000000" font-family="sans-serif" font-size="13" lengthAdjust="spacing" textLength="56" x="976" y="583.1045">Discovers</text><text fill="#000000" font-family="sans-serif" font-size="13" lengthAdjust="spacing" textLength="53" x="981.5" y="599.4561">[Camera]</text></g><!--MD5=[ca44634d6cc5c28525db55dc8ff0e7a5]
link NDHL to TFW--><g id="link_NDHL_TFW"><path codeLine="74" d="M572.6,653.6894 C572.62,675.7194 575.81,699.6494 586,719.6094 C601.4,749.7794 629.69,774.0594 656.49,791.7794 " fill="none" id="NDHL-to-TFW" style="stroke:#181818;stroke-width:1.0;"/><polygon fill="#181818" points="660.78,794.5594,655.405,786.3065,656.5848,791.839,651.0524,793.0188,660.78,794.5594" style="stroke:#181818;stroke-width:1.0;"/><text fill="#000000" font-family="sans-serif" font-size="13" lengthAdjust="spacing" textLength="60" x="587" y="700.1045">Sets state</text><text fill="#000000" font-family="sans-serif" font-size="13" lengthAdjust="spacing" textLength="43" x="599.5" y="716.4561">[MQTT]</text></g><!--MD5=[59287b27022fc2fe5ed6a5b45fbc995f]
reverse link NDHL to TFW--><g id="link_NDHL_TFW"><path codeLine="75" d="M637.93,658.1494 C644.31,667.1994 650.49,676.4894 656,685.6094 C677.61,721.3594 697.25,765.3194 709.38,794.4494 " fill="none" id="NDHL-backto-TFW" style="stroke:#181818;stroke-width:1.0;"/><polygon fill="#181818" points="634.78,653.7294,636.7434,663.3805,637.6808,657.8019,643.2594,658.7393,634.78,653.7294" style="stroke:#181818;stroke-width:1.0;"/><text fill="#000000" font-family="sans-serif" font-size="13" lengthAdjust="spacing" textLength="69" x="675" y="700.1045">Sends input</text><text fill="#000000" font-family="sans-serif" font-size="13" lengthAdjust="spacing" textLength="43" x="692" y="716.4561">[MQTT]</text></g><!--MD5=[457cc24ddc4608b6a26c32c6ebcacf01]
reverse link NTHL to NDHL--><g id="link_NTHL_NDHL"><path codeLine="76" d="M482.06,443.9094 C489.29,452.4594 496.39,461.1294 503,469.6094 C514.79,484.7394 526.78,501.5594 537.7,517.5694 " fill="none" id="NTHL-backto-NDHL" style="stroke:#181818;stroke-width:1.0;"/><polygon fill="#181818" points="478.5,439.7294,481.279,449.178,481.7374,443.5398,487.3757,443.9982,478.5,439.7294" style="stroke:#181818;stroke-width:1.0;"/><text fill="#000000" font-family="sans-serif" font-size="13" lengthAdjust="spacing" textLength="60" x="515" y="484.1045">Sets state</text></g><!--MD5=[7df836a8b8abd4abad459e925722a21d]
link NTHL to NDHL--><g id="link_NTHL_NDHL"><path codeLine="77" d="M407.5,439.6194 C409.98,456.4094 414.92,473.4194 424,487.6094 C430.01,496.9994 437.29,505.6394 445.38,513.5394 " fill="none" id="NTHL-to-NDHL" style="stroke:#181818;stroke-width:1.0;"/><polygon fill="#181818" points="449.41,517.3594,445.6155,508.2708,445.7757,513.9254,440.1211,514.0857,449.41,517.3594" style="stroke:#181818;stroke-width:1.0;"/><text fill="#000000" font-family="sans-serif" font-size="13" lengthAdjust="spacing" textLength="69" x="425" y="484.1045">Sends input</text></g><!--MD5=[3b87f2f62a7ea412b35a1ddf0227279f]
link MQC to NTHL--><g id="link_MQC_NTHL"><path codeLine="78" d="M286.83,168.9294 C283.9,188.5194 282.85,213.7994 291,234.6094 C297.64,251.5494 307.7,267.5894 319.2,282.2094 " fill="none" id="MQC-to-NTHL" style="stroke:#181818;stroke-width:1.0;"/><polygon fill="#181818" points="322.48,286.2894,319.9685,276.7661,319.3513,282.3892,313.7282,281.772,322.48,286.2894" style="stroke:#181818;stroke-width:1.0;"/><text fill="#000000" font-family="sans-serif" font-size="13" lengthAdjust="spacing" textLength="69" x="292" y="215.1045">Sends input</text><text fill="#000000" font-family="sans-serif" font-size="13" lengthAdjust="spacing" textLength="37" x="312" y="231.4561">[NGO]</text></g><!--MD5=[f3d3caa83e7cadb8f01a36acf832a829]
reverse link MQC to NTHL--><g id="link_MQC_NTHL"><path codeLine="79" d="M345.07,171.9294 C354.5,180.3694 363.43,190.0394 370,200.6094 C385.91,226.2094 395.32,257.8294 400.9,286.2694 " fill="none" id="MQC-backto-NTHL" style="stroke:#181818;stroke-width:1.0;"/><polygon fill="#181818" points="341.29,168.6394,345.4316,177.5751,345.0538,171.9309,350.698,171.5531,341.29,168.6394" style="stroke:#181818;stroke-width:1.0;"/><text fill="#000000" font-family="sans-serif" font-size="13" lengthAdjust="spacing" textLength="60" x="386" y="215.1045">Sets state</text><text fill="#000000" font-family="sans-serif" font-size="13" lengthAdjust="spacing" textLength="37" x="401.5" y="231.4561">[NGO]</text></g><!--MD5=[cfcecdc7b7cc7563b80af29c91a6ff88]
reverse link Game to NDHL--><g id="link_Game_NDHL"><path codeLine="80" d="M337.33,585.6094 C370.35,585.6094 404.92,585.6094 437.31,585.6094 " fill="none" id="Game-backto-NDHL" style="stroke:#181818;stroke-width:1.0;"/><polygon fill="#181818" points="332.04,585.6094,341.04,589.6094,337.04,585.6094,341.04,581.6094,332.04,585.6094" style="stroke:#181818;stroke-width:1.0;"/><text fill="#000000" font-family="sans-serif" font-size="13" lengthAdjust="spacing" textLength="69" x="350.25" y="579.1045">Sends input</text></g><!--MD5=[b82c3f91cf9a24fb762f7315fed82dd9]
link Game to NDHL--><g id="link_Game_NDHL"><path codeLine="81" d="M332.31,606.0894 C360.08,607.8094 388.76,608.3194 415.75,606.6094 C421.16,606.2694 426.67,605.8594 432.23,605.4094 " fill="none" id="Game-to-NDHL" style="stroke:#181818;stroke-width:1.0;"/><polygon fill="#181818" points="437.35,604.9694,428.0497,601.7284,432.3672,605.3834,428.7121,609.7009,437.35,604.9694" style="stroke:#181818;stroke-width:1.0;"/><text fill="#000000" font-family="sans-serif" font-size="13" lengthAdjust="spacing" textLength="60" x="354.75" y="603.1045">Sets state</text></g><!--MD5=[bab3c29fba9f659618cf09fde065618e]
reverse link Exact to TFW--><g id="link_Exact_TFW"><path codeLine="82" d="M747.61,426.2194 C758,439.4494 767.2,454.1394 773,469.6094 C815.79,583.7694 763.8,730.8594 736.59,794.4794 " fill="none" id="Exact-backto-TFW" style="stroke:#181818;stroke-width:1.0;"/><polygon fill="#181818" points="744.34,422.1494,746.8515,431.6726,747.4687,426.0495,753.0918,426.6667,744.34,422.1494" style="stroke:#181818;stroke-width:1.0;"/><text fill="#000000" font-family="sans-serif" font-size="13" lengthAdjust="spacing" textLength="70" x="790" y="583.1045">Connects to</text><text fill="#000000" font-family="sans-serif" font-size="13" lengthAdjust="spacing" textLength="43" x="807.5" y="599.4561">[MQTT]</text></g><!--MD5=[262647221c535a8d5c3bb387b8e2dcac]
link QRCM to NDHL--><g id="link_QRCM_NDHL"><path codeLine="83" d="M868.4,431.1694 C818.65,457.7294 761.44,488.2694 711.24,515.0794 " fill="none" id="QRCM-to-NDHL" style="stroke:#181818;stroke-width:1.0;"/><polygon fill="#181818" points="706.71,517.4894,716.534,516.7901,711.1234,515.1394,712.7741,509.7288,706.71,517.4894" style="stroke:#181818;stroke-width:1.0;"/><text fill="#000000" font-family="sans-serif" font-size="13" lengthAdjust="spacing" textLength="67" x="788" y="484.1045">Instantiates</text></g><!--MD5=[020fabdd098b10557661caf3ed282314]
@startuml componentHoloLens

title Component Diagram for HoloLens Server

package HLS as "HoloLensServer" {
    component Exact [
        <b>Exact Manager</b>
        <i>[Component: GameObject]</i>

        Handles the MQTT communication
        for the digital twin (<i>Network Device</i>).
    ]
    component NMHL [
        <b>Network Manager</b>
        <i>[Component: GameObject]</i>

        Handles the NGO communication
        (<i>Netcode for GameObjects</i>)
        for cross-device communication.
    ]
    component QRCM [
        <b>QR Codes Manager</b>
        <i>[Component: GameObject]</i>

        Handles the detection of new QR codes
        and instantiation of new GameObjects
        (<i>NetworkDevice</i>) based on QR data.
    ]
    component Game [
        <b>Game</b>
        <i>[Component: GameObject]</i>

        Runs the game logic and determines which
        state the game objects should have.
    ]
    component NDHL [
        <b>Network Device</b>
        <i>[Component: GameObject]</i>

        The logic-only representation of the
        digital twin running on the HoloLens
        and communicating with the IoT device.
    ]
    component NTHL [
        <b>Network Thing</b>
        <i>[Component: GameObject]</i>

        The visual representation
        of the digital twin.
        Synchronizes its state
        between all clients.
    ]
}

node MQ as "<b>Meta Quest Client</b> \n <i>[Meta Quest Pro]</i>" {
    component MQC [
        <b>MetaQuestClient</b>
        <i>[Container: UnityEngine, Meta XR SDK]</i>
    ]
}

node RT as "<b>Red Tile</b> \n <i>[IoT Device]</i>" {
    component TQR [
        <b>QR Code</b>
        <i>[Micro QR]</i>
    ]
    component TFW [
        <b>Tile Firmware</b>
        <i>[Container: Arduino, Unity-Things]</i>
    ]
}

MQC - -> NMHL : Connects to \n [NGO]
QRCM - -> TQR : Discovers \n [Camera]
NDHL - -> TFW : Sets state \n [MQTT]
NDHL <- - TFW : Sends input \n [MQTT]
NTHL <- - NDHL : Sets state
NTHL - -> NDHL : Sends input
MQC - -> NTHL : Sends input \n [NGO]
MQC <- - NTHL : Sets state \n [NGO]
Game <- NDHL : Sends input
Game -> NDHL : Sets state
Exact <- - TFW : Connects to \n [MQTT]
QRCM - -> NDHL : Instantiates

@end

PlantUML version 1.2022.7(Mon Aug 22 19:01:30 CEST 2022)
(GPL source distribution)
Java Runtime: OpenJDK Runtime Environment
JVM: OpenJDK 64-Bit Server VM
Default Encoding: Cp1252
Language: en
Country: GB
--></g></svg>